<svg width="176" height="56" viewBox="0 0 176 56" fill="none" xmlns="http://www.w3.org/2000/svg">
<g clip-path="url(#clip0_2068_12719)">
<path fill-rule="evenodd" clip-rule="evenodd" d="M98.5058 0.975648H169.905C171.808 0.975648 173.366 2.55217 173.366 4.47931V20.4989C173.366 22.426 171.808 24.0022 169.905 24.0022H98.5058C96.6025 24.0022 95.0451 22.426 95.0451 20.4989V4.47931C95.0451 2.55217 96.6025 0.975648 98.5058 0.975648ZM98.5526 20.0054V4.97375H101.862V20.0054H98.5526ZM106.978 20.0054C106.572 20.0054 106.285 19.9283 106.118 19.774C105.951 19.6197 105.868 19.3662 105.868 19.0136V17.2062C105.868 16.8682 105.951 16.6185 106.118 16.4568C106.285 16.2953 106.572 16.2145 106.978 16.2145H108.045C108.466 16.2145 108.76 16.2953 108.927 16.4568C109.094 16.6185 109.177 16.8682 109.177 17.2062V19.0136C109.177 19.3662 109.094 19.6197 108.927 19.774C108.76 19.9283 108.466 20.0054 108.045 20.0054H106.978ZM133.518 20.0054V10.1092L126.268 19.6969C125.934 20.1229 125.448 20.3361 124.809 20.3361C124.17 20.3361 123.684 20.1229 123.35 19.6969L116.122 10.1092V20.0054H113.118V6.00955C113.118 5.53917 113.288 5.19398 113.629 4.97375C113.97 4.75308 114.395 4.64308 114.903 4.64308C115.295 4.64308 115.607 4.69791 115.839 4.80824C116.071 4.91858 116.282 5.0986 116.47 5.34831L124.853 16.611L133.3 5.34831C133.489 5.0986 133.689 4.91858 133.899 4.80824C134.109 4.69791 134.403 4.64308 134.781 4.64308C135.289 4.64308 135.713 4.75308 136.054 4.97375C136.395 5.19398 136.566 5.53917 136.566 6.00955V20.0054H133.518ZM141.595 20.0054C141.189 20.0054 140.902 19.9283 140.735 19.774C140.568 19.6197 140.485 19.3662 140.485 19.0136V17.2062C140.485 16.8682 140.568 16.6185 140.735 16.4568C140.902 16.2953 141.189 16.2145 141.595 16.2145H142.662C143.083 16.2145 143.377 16.2953 143.544 16.4568C143.711 16.6185 143.794 16.8682 143.794 17.2062V19.0136C143.794 19.3662 143.711 19.6197 143.544 19.774C143.377 19.9283 143.083 20.0054 142.662 20.0054H141.595ZM147.321 20.0054V17.1623H158.599C159.194 17.1623 159.622 17.0777 159.883 16.9089C160.144 16.7397 160.275 16.3982 160.275 15.8839V15.0683C160.275 14.5979 160.144 14.2639 159.883 14.0653C159.622 13.867 159.201 13.7678 158.62 13.7678H151.544C150.717 13.7678 150.031 13.6907 149.487 13.5364C148.943 13.3821 148.511 13.1469 148.192 12.8312C147.872 12.5152 147.651 12.1186 147.528 11.6411C147.404 11.1633 147.342 10.6011 147.342 9.95486V9.20529C147.342 8.4412 147.422 7.78744 147.582 7.24369C147.742 6.70016 147.989 6.26306 148.322 5.93239C148.656 5.60182 149.092 5.35915 149.629 5.20514C150.166 5.05091 150.804 4.97375 151.544 4.97375H156.16V7.81693H151.849C151.341 7.81693 150.968 7.91609 150.728 8.11432C150.489 8.31266 150.369 8.71335 150.369 9.31562V9.80053C150.369 10.2706 150.478 10.6049 150.695 10.8036C150.913 11.0018 151.29 11.101 151.828 11.101H158.773C159.6 11.101 160.3 11.1707 160.874 11.3105C161.447 11.4499 161.915 11.6739 162.278 11.9825C162.641 12.2911 162.902 12.688 163.062 13.1726C163.222 13.6575 163.301 14.2382 163.301 14.914V16.1041C163.301 16.8097 163.222 17.4083 163.062 17.9007C162.902 18.3927 162.641 18.7934 162.278 19.102C161.915 19.4102 161.447 19.638 160.874 19.7852C160.3 19.9321 159.6 20.0054 158.773 20.0054H147.321ZM167.656 20.0054C167.249 20.0054 166.962 19.9283 166.796 19.774C166.629 19.6197 166.545 19.3662 166.545 19.0136V17.2062C166.545 16.8682 166.629 16.6185 166.796 16.4568C166.962 16.2953 167.249 16.2145 167.656 16.2145H168.722C169.143 16.2145 169.437 16.2953 169.604 16.4568C169.771 16.6185 169.854 16.8682 169.854 17.2062V19.0136C169.854 19.3662 169.771 19.6197 169.604 19.774C169.437 19.9283 169.143 20.0054 168.722 20.0054H167.656Z" fill="white"/>
<path d="M9.57432 42.8853C8.54698 42.8853 7.69094 42.7987 7.00608 42.6252C6.32112 42.4519 5.7733 42.1745 5.36241 41.7932C4.95141 41.4119 4.66032 40.9128 4.48913 40.2957C4.31794 39.6786 4.2323 38.9195 4.2323 38.0182V33.5667C4.2323 32.6793 4.31794 31.9234 4.48913 31.2996C4.66032 30.6754 4.95141 30.1728 5.36241 29.7915C5.7733 29.4103 6.32112 29.1328 7.00608 28.9595C7.69094 28.7862 8.54698 28.6995 9.57432 28.6995H13.0261V31.3827H9.57432C9.12243 31.3827 8.75243 31.4209 8.46487 31.497C8.17731 31.5736 7.94778 31.6948 7.77659 31.8612C7.60529 32.0276 7.48892 32.2494 7.42725 32.5269C7.3657 32.804 7.33476 33.1507 7.33476 33.5667V34.5235H19.2722V37.0403H7.33476V38.0389C7.33476 38.4687 7.3657 38.8223 7.42725 39.0998C7.48892 39.3769 7.60187 39.5989 7.7662 39.7653C7.93054 39.9316 8.16007 40.0462 8.45448 40.1084C8.749 40.1709 9.12243 40.202 9.57432 40.202H19.3545V42.8853H9.57432ZM36.1613 43.1974C35.8327 43.1974 35.5277 43.1453 35.2471 43.0412C34.9661 42.9374 34.7024 42.7674 34.456 42.5316L24.2444 32.7971V42.8853H21.3474V29.6979C21.3474 29.2541 21.5013 28.9249 21.8097 28.71C22.1179 28.495 22.5186 28.3875 23.0116 28.3875C23.3678 28.3875 23.6623 28.436 23.8951 28.5331C24.128 28.6302 24.3199 28.755 24.4705 28.9075L34.7642 38.954V28.6995H37.7229V41.8868C37.7229 42.3583 37.579 42.6945 37.2914 42.8958C37.0039 43.0967 36.6269 43.1974 36.1613 43.1974ZM45.3455 42.8853C44.3181 42.8853 43.4621 42.7987 42.7772 42.6252C42.0923 42.4519 41.5445 42.1745 41.1336 41.7932C40.7226 41.4119 40.4315 40.9128 40.2603 40.2957C40.0891 39.6786 40.0034 38.9195 40.0034 38.0182V33.5667C40.0034 32.6793 40.0891 31.9234 40.2603 31.2996C40.4315 30.6754 40.7226 30.1728 41.1336 29.7915C41.5445 29.4103 42.0923 29.1328 42.7772 28.9595C43.4621 28.7862 44.3181 28.6995 45.3455 28.6995H49.0027V31.4243H45.4895C45.0238 31.4243 44.6367 31.4625 44.3285 31.5387C44.0203 31.6151 43.7772 31.7434 43.5991 31.9234C43.421 32.1038 43.2943 32.3396 43.219 32.6307C43.1437 32.9218 43.1059 33.2825 43.1059 33.7124V37.8931C43.1059 38.3648 43.1437 38.7496 43.219 39.0477C43.2943 39.3458 43.4244 39.578 43.6094 39.7446C43.7942 39.9109 44.041 40.0253 44.349 40.0877C44.6572 40.15 45.0373 40.1813 45.4895 40.1813H50.7697C51.2081 40.1813 51.5779 40.15 51.8793 40.0877C52.1806 40.0253 52.4237 39.9075 52.6087 39.7341C52.7937 39.5608 52.9271 39.3147 53.0094 38.9957C53.0916 38.6767 53.1327 38.2676 53.1327 37.7683V34.4819H56.2557V38.0182C56.2557 38.9195 56.1701 39.6786 55.9989 40.2957C55.8277 40.9128 55.5364 41.4119 55.1256 41.7932C54.7147 42.1745 54.1635 42.4519 53.4717 42.6252C52.7799 42.7987 51.9134 42.8853 50.8726 42.8853H45.3455ZM58.4541 42.8853V28.6995H61.5772V42.8853H58.4541ZM78.8362 43.1974C78.5075 43.1974 78.2027 43.1453 77.922 43.0412C77.6411 42.9374 77.3774 42.7674 77.1308 42.5316L66.9192 32.7971V42.8853H64.0222V29.6979C64.0222 29.2541 64.1763 28.9249 64.4845 28.71C64.7927 28.495 65.1935 28.3875 65.6866 28.3875C66.0427 28.3875 66.3372 28.436 66.5699 28.5331C66.8029 28.6302 66.9948 28.755 67.1453 28.9075L77.439 38.954V28.6995H80.3978V41.8868C80.3978 42.3583 80.2539 42.6945 79.9663 42.8958C79.6787 43.0967 79.3019 43.1974 78.8362 43.1974ZM88.0204 42.8853C86.9931 42.8853 86.1369 42.7987 85.4521 42.6252C84.7672 42.4519 84.2193 42.1745 83.8085 41.7932C83.3974 41.4119 83.1064 40.9128 82.9351 40.2957C82.7639 39.6786 82.6783 38.9195 82.6783 38.0182V33.5667C82.6783 32.6793 82.7639 31.9234 82.9351 31.2996C83.1064 30.6754 83.3974 30.1728 83.8085 29.7915C84.2193 29.4103 84.7672 29.1328 85.4521 28.9595C86.1369 28.7862 86.9931 28.6995 88.0204 28.6995H91.4721V31.3827H88.0204C87.5685 31.3827 87.1985 31.4209 86.9109 31.497C86.6233 31.5736 86.3938 31.6948 86.2226 31.8612C86.0514 32.0276 85.935 32.2494 85.8732 32.5269C85.8117 32.804 85.7807 33.1507 85.7807 33.5667V34.5235H97.7183V37.0403H85.7807V38.0389C85.7807 38.4687 85.8117 38.8223 85.8732 39.0998C85.935 39.3769 86.0479 39.5989 86.2122 39.7653C86.3765 39.9316 86.6061 40.0462 86.9006 40.1084C87.195 40.1709 87.5685 40.202 88.0204 40.202H97.8005V42.8853H88.0204ZM105.053 42.8853C104.026 42.8853 103.17 42.7987 102.485 42.6252C101.8 42.4519 101.252 42.1745 100.841 41.7932C100.43 41.4119 100.139 40.9128 99.9681 40.2957C99.7968 39.6786 99.7113 38.9195 99.7113 38.0182V33.5667C99.7113 32.6793 99.7968 31.9234 99.9681 31.2996C100.139 30.6754 100.43 30.1728 100.841 29.7915C101.252 29.4103 101.8 29.1328 102.485 28.9595C103.17 28.7862 104.026 28.6995 105.053 28.6995H108.505V31.3827H105.053C104.601 31.3827 104.231 31.4209 103.944 31.497C103.656 31.5736 103.427 31.6948 103.255 31.8612C103.084 32.0276 102.968 32.2494 102.906 32.5269C102.845 32.804 102.814 33.1507 102.814 33.5667V34.5235H114.751V37.0403H102.814V38.0389C102.814 38.4687 102.845 38.8223 102.906 39.0998C102.968 39.3769 103.081 39.5989 103.245 39.7653C103.409 39.9316 103.639 40.0462 103.933 40.1084C104.228 40.1709 104.601 40.202 105.053 40.202H114.833V42.8853H105.053ZM128.127 42.8853L119.929 37.7267V42.8853H116.826V28.6995H127.798C128.784 28.6995 129.627 28.762 130.325 28.8868C131.024 29.0115 131.596 29.2335 132.041 29.5522C132.486 29.8713 132.812 30.3081 133.017 30.8627C133.222 31.4174 133.325 32.1176 133.325 32.9634V33.9413C133.325 34.7593 133.215 35.4353 132.996 35.9692C132.777 36.5032 132.438 36.9261 131.979 37.2381C131.52 37.5499 130.942 37.7683 130.243 37.8931C129.544 38.0182 128.716 38.0804 127.757 38.0804H125.291L133.51 42.8853H128.127ZM130.202 33.13C130.202 32.7555 130.161 32.4504 130.079 32.2149C129.997 31.979 129.86 31.7987 129.668 31.6739C129.476 31.5491 129.209 31.4659 128.866 31.4243C128.524 31.3827 128.099 31.3618 127.593 31.3618H119.929V35.6883H127.593C128.099 35.6883 128.521 35.6676 128.856 35.6261C129.192 35.5844 129.459 35.5012 129.658 35.3765C129.856 35.2517 129.997 35.0714 130.079 34.8355C130.161 34.5999 130.202 34.2879 130.202 33.8996V33.13ZM135.524 42.8853V28.6995H138.647V42.8853H135.524ZM155.905 43.1974C155.577 43.1974 155.272 43.1453 154.991 43.0412C154.71 42.9374 154.447 42.7674 154.2 42.5316L143.989 32.7971V42.8853H141.092V29.6979C141.092 29.2541 141.246 28.9249 141.554 28.71C141.862 28.495 142.263 28.3875 142.756 28.3875C143.112 28.3875 143.407 28.436 143.639 28.5331C143.872 28.6302 144.064 28.755 144.215 28.9075L154.508 38.954V28.6995H157.467V41.8868C157.467 42.3583 157.323 42.6945 157.036 42.8958C156.748 43.0967 156.371 43.1974 155.905 43.1974ZM165.09 42.8853C164.062 42.8853 163.206 42.7987 162.521 42.6252C161.837 42.4519 161.289 42.1745 160.878 41.7932C160.467 41.4119 160.176 40.9128 160.005 40.2957C159.833 39.6786 159.748 38.9195 159.748 38.0182V33.5667C159.748 32.6793 159.833 31.9234 160.005 31.2996C160.176 30.6754 160.467 30.1728 160.878 29.7915C161.289 29.4103 161.837 29.1328 162.521 28.9595C163.206 28.7862 164.062 28.6995 165.09 28.6995H168.747V31.4243H165.234C164.768 31.4243 164.381 31.4625 164.073 31.5387C163.765 31.6151 163.521 31.7434 163.343 31.9234C163.165 32.1038 163.039 32.3396 162.963 32.6307C162.888 32.9218 162.85 33.2825 162.85 33.7124V37.8931C162.85 38.3648 162.888 38.7496 162.963 39.0477C163.039 39.3458 163.169 39.578 163.354 39.7446C163.538 39.9109 163.785 40.0253 164.093 40.0877C164.401 40.15 164.782 40.1813 165.234 40.1813H170.514C170.952 40.1813 171.322 40.15 171.624 40.0877C171.925 40.0253 172.168 39.9075 172.353 39.7341C172.538 39.5608 172.671 39.3147 172.754 38.9957C172.836 38.6767 172.877 38.2676 172.877 37.7683V34.4819H176V38.0182C176 38.9195 175.914 39.6786 175.743 40.2957C175.572 40.9128 175.281 41.4119 174.87 41.7932C174.459 42.1745 173.908 42.4519 173.216 42.6252C172.524 42.7987 171.658 42.8853 170.617 42.8853H165.09Z" fill="white"/>
<path d="M5.9507 55.8995C5.62021 55.8995 5.34474 55.8717 5.12442 55.816C4.90409 55.7601 4.72787 55.6709 4.59565 55.5482C4.46344 55.4256 4.36976 55.2651 4.31473 55.0666C4.2596 54.8679 4.23208 54.6237 4.23208 54.3337V52.9017C4.23208 52.6161 4.2596 52.3731 4.31473 52.1724C4.36976 51.9716 4.46344 51.8098 4.59565 51.6871C4.72787 51.5645 4.90409 51.4753 5.12442 51.4196C5.34474 51.3637 5.62021 51.3359 5.9507 51.3359H7.06111V52.199H5.9507C5.80521 52.199 5.68626 52.2114 5.59376 52.236C5.50127 52.2604 5.4274 52.2994 5.37237 52.3532C5.31723 52.4066 5.27987 52.4779 5.25985 52.5671C5.24015 52.6563 5.23019 52.7678 5.23019 52.9017V53.2096H9.07061V54.0191H5.23019V54.3404C5.23019 54.4787 5.24015 54.5925 5.25985 54.6817C5.27987 54.771 5.31605 54.8424 5.36905 54.8958C5.42194 54.9494 5.49581 54.9862 5.59034 55.0061C5.68519 55.0264 5.80521 55.0364 5.9507 55.0364H9.09694V55.8995H5.9507ZM11.4434 55.8995C11.1131 55.8995 10.8376 55.8717 10.6173 55.816C10.397 55.7601 10.2207 55.6709 10.0885 55.5482C9.95631 55.4256 9.86263 55.2651 9.8076 55.0666C9.75247 54.8679 9.72495 54.6237 9.72495 54.3337V51.3359H10.7228V54.2935C10.7228 54.4274 10.7351 54.5401 10.7594 54.6315C10.7834 54.7229 10.8266 54.7989 10.8881 54.859C10.9499 54.9192 11.0325 54.9627 11.136 54.9894C11.2397 55.0164 11.3708 55.0296 11.5294 55.0296H14.2063V55.8995H11.4434ZM16.4141 55.8995C16.0835 55.8995 15.8081 55.8717 15.5878 55.816C15.3675 55.7601 15.1912 55.6709 15.0589 55.5482C14.9267 55.4256 14.8332 55.2651 14.778 55.0666C14.723 54.8679 14.6954 54.6237 14.6954 54.3337V52.9017C14.6954 52.6161 14.723 52.3731 14.778 52.1724C14.8332 51.9716 14.9267 51.8098 15.0589 51.6871C15.1912 51.5645 15.3675 51.4753 15.5878 51.4196C15.8081 51.3637 16.0835 51.3359 16.4141 51.3359H17.5245V52.199H16.4141C16.2685 52.199 16.1497 52.2114 16.0572 52.236C15.9647 52.2604 15.8908 52.2994 15.8357 52.3532C15.7806 52.4066 15.7432 52.4779 15.7232 52.5671C15.7034 52.6563 15.6936 52.7678 15.6936 52.9017V53.2096H19.5339V54.0191H15.6936V54.3404C15.6936 54.4787 15.7034 54.5925 15.7232 54.6817C15.7432 54.771 15.7795 54.8424 15.8324 54.8958C15.8852 54.9494 15.9592 54.9862 16.0537 55.0061C16.1485 55.0264 16.2685 55.0364 16.4141 55.0364H19.5603V55.8995H16.4141ZM23.7179 55.8995L21.2062 53.6713V55.8995H20.208V51.3359H21.2062V53.5175L23.6651 51.3359H25.0201L22.4422 53.5509L25.0929 55.8995H23.7179ZM27.1354 55.8995V52.2126H25.2448V51.3359H30.037V52.2126H28.1467V55.8995H27.1354ZM34.1881 55.8995L31.5507 54.2401V55.8995H30.5525V51.3359H34.0822C34.3995 51.3359 34.6705 51.3558 34.8952 51.396C35.12 51.4362 35.304 51.5076 35.4472 51.6103C35.5905 51.7127 35.6951 51.8533 35.7612 52.0318C35.8273 52.2102 35.8604 52.4356 35.8604 52.7077V53.0221C35.8604 53.2853 35.8251 53.5028 35.7546 53.6746C35.6841 53.8465 35.5751 53.9824 35.4275 54.0828C35.2797 54.1832 35.0935 54.2533 34.8688 54.2935C34.6442 54.3337 34.3774 54.3537 34.069 54.3537H33.276L35.9198 55.8995H34.1881ZM34.8555 52.7611C34.8555 52.6408 34.8425 52.5427 34.816 52.4668C34.7897 52.391 34.7456 52.3329 34.6839 52.2927C34.6221 52.2527 34.5363 52.2258 34.4261 52.2126C34.3159 52.199 34.1791 52.1923 34.0162 52.1923H31.5507V53.5844H34.0162C34.1791 53.5844 34.3148 53.5777 34.4227 53.5641C34.5308 53.5509 34.6166 53.524 34.6804 53.484C34.7444 53.4438 34.7897 53.3857 34.816 53.3099C34.8425 53.234 34.8555 53.1336 34.8555 53.0089V52.7611ZM36.5675 55.8995V51.3359H37.5721V55.8995H36.5675ZM40.051 55.8995C39.7205 55.8995 39.445 55.8717 39.2247 55.816C39.0044 55.7601 38.828 55.6709 38.6958 55.5482C38.5636 55.4256 38.47 55.2651 38.4149 55.0666C38.3599 54.8679 38.3323 54.6237 38.3323 54.3337V52.9017C38.3323 52.6161 38.3599 52.3731 38.4149 52.1724C38.47 51.9716 38.5636 51.8098 38.6958 51.6871C38.828 51.5645 39.0044 51.4753 39.2247 51.4196C39.445 51.3637 39.7205 51.3359 40.051 51.3359H43.1774V52.2126H40.0971C39.9431 52.2126 39.8164 52.2248 39.7173 52.2492C39.618 52.2739 39.5398 52.315 39.4824 52.3731C39.4253 52.4312 39.3856 52.5081 39.3636 52.6038C39.3415 52.6998 39.3305 52.8169 39.3305 52.9551V54.2935C39.3305 54.4364 39.3415 54.5545 39.3636 54.6484C39.3856 54.742 39.4253 54.8178 39.4824 54.8759C39.5398 54.9336 39.619 54.9738 39.7205 54.9962C39.8219 55.0185 39.9495 55.0296 40.1038 55.0296H43.1774V55.8995H40.051ZM48.406 54.8491H45.2861L44.6448 55.8995H43.488L46.1057 51.6839C46.1849 51.5545 46.2797 51.4474 46.3898 51.3626C46.5 51.2778 46.6585 51.2355 46.8658 51.2355C47.0685 51.2355 47.2248 51.2778 47.3349 51.3626C47.4452 51.4474 47.54 51.5545 47.6194 51.6839L50.2237 55.8995H49.0603L48.406 54.8491ZM45.7552 54.066H47.9366L46.8459 52.266L45.7552 54.066ZM52.1074 55.8995C51.7771 55.8995 51.5017 55.8717 51.2813 55.816C51.061 55.7601 50.8848 55.6709 50.7526 55.5482C50.6204 55.4256 50.5267 55.2651 50.4717 55.0666C50.4165 54.8679 50.389 54.6237 50.389 54.3337V51.3359H51.3869V54.2935C51.3869 54.4274 51.3991 54.5401 51.4234 54.6315C51.4475 54.7229 51.4907 54.7989 51.5522 54.859C51.614 54.9192 51.6965 54.9627 51.8001 54.9894C51.9038 55.0164 52.0348 55.0296 52.1935 55.0296H54.8704V55.8995H52.1074ZM57.8844 55.8995V55.0364H61.3084C61.489 55.0364 61.6192 55.0108 61.6984 54.9594C61.7777 54.9081 61.8174 54.8044 61.8174 54.6484V54.4006C61.8174 54.258 61.7777 54.1564 61.6984 54.0963C61.6192 54.0358 61.4913 54.0059 61.315 54.0059H59.1668C58.9156 54.0059 58.7075 53.9824 58.5422 53.9354C58.377 53.8887 58.246 53.8174 58.1489 53.7215C58.052 53.6255 57.9847 53.5052 57.9473 53.3601C57.9099 53.2151 57.8911 53.0444 57.8911 52.8482V52.6205C57.8911 52.3887 57.9154 52.1903 57.9639 52.025C58.0123 51.86 58.0871 51.7274 58.1886 51.627C58.2897 51.5266 58.422 51.4529 58.5851 51.406C58.7481 51.3593 58.9421 51.3359 59.1668 51.3359H60.5682V52.199H59.2593C59.105 52.199 58.9916 52.2293 58.9188 52.2894C58.8461 52.3496 58.8098 52.4712 58.8098 52.654V52.8013C58.8098 52.944 58.8429 53.0455 58.909 53.1058C58.9751 53.1661 59.0896 53.1961 59.2528 53.1961H61.3612C61.6125 53.1961 61.825 53.2173 61.9992 53.2598C62.1732 53.3021 62.3153 53.3701 62.4254 53.4637C62.5357 53.5574 62.615 53.678 62.6635 53.8251C62.7119 53.9724 62.7362 54.1485 62.7362 54.3537V54.7152C62.7362 54.9293 62.7119 55.1111 62.6635 55.2606C62.615 55.41 62.5357 55.5316 62.4254 55.6252C62.3153 55.7189 62.1732 55.788 61.9992 55.8326C61.825 55.8773 61.6125 55.8995 61.3612 55.8995H57.8844ZM64.4283 55.8995V53.7449L61.7842 51.3359H63.1393L64.957 52.9619L66.8077 51.3359H68.09L65.4329 53.7582V55.8995H64.4283ZM68.0569 55.8995V55.0364H71.481C71.6616 55.0364 71.7917 55.0108 71.8709 54.9594C71.9503 54.9081 71.9901 54.8044 71.9901 54.6484V54.4006C71.9901 54.258 71.9503 54.1564 71.8709 54.0963C71.7917 54.0358 71.6639 54.0059 71.4876 54.0059H69.3393C69.0882 54.0059 68.88 53.9824 68.7148 53.9354C68.5495 53.8887 68.4185 53.8174 68.3214 53.7215C68.2245 53.6255 68.1573 53.5052 68.1199 53.3601C68.0824 53.2151 68.0637 53.0444 68.0637 52.8482V52.6205C68.0637 52.3887 68.088 52.1903 68.1364 52.025C68.1849 51.86 68.2596 51.7274 68.3611 51.627C68.4623 51.5266 68.5945 51.4529 68.7578 51.406C68.9207 51.3593 69.1146 51.3359 69.3393 51.3359H70.7408V52.199H69.4318C69.2775 52.199 69.1641 52.2293 69.0915 52.2894C69.0187 52.3496 68.9824 52.4712 68.9824 52.654V52.8013C68.9824 52.944 69.0154 53.0455 69.0816 53.1058C69.1477 53.1661 69.2622 53.1961 69.4254 53.1961H71.5338C71.785 53.1961 71.9976 53.2173 72.1719 53.2598C72.3458 53.3021 72.4879 53.3701 72.5981 53.4637C72.7082 53.5574 72.7877 53.678 72.836 53.8251C72.8844 53.9724 72.9088 54.1485 72.9088 54.3537V54.7152C72.9088 54.9293 72.8844 55.1111 72.836 55.2606C72.7877 55.41 72.7082 55.5316 72.5981 55.6252C72.4879 55.7189 72.3458 55.788 72.1719 55.8326C71.9976 55.8773 71.785 55.8995 71.5338 55.8995H68.0569ZM74.5811 55.8995V52.2126H72.6906V51.3359H77.4827V52.2126H75.5924V55.8995H74.5811ZM79.6904 55.8995C79.3599 55.8995 79.0845 55.8717 78.8642 55.816C78.6438 55.7601 78.4676 55.6709 78.3353 55.5482C78.2031 55.4256 78.1094 55.2651 78.0544 55.0666C77.9993 54.8679 77.9718 54.6237 77.9718 54.3337V52.9017C77.9718 52.6161 77.9993 52.3731 78.0544 52.1724C78.1094 51.9716 78.2031 51.8098 78.3353 51.6871C78.4676 51.5645 78.6438 51.4753 78.8642 51.4196C79.0845 51.3637 79.3599 51.3359 79.6904 51.3359H80.8008V52.199H79.6904C79.5449 52.199 79.426 52.2114 79.3335 52.236C79.2411 52.2604 79.1671 52.2994 79.112 52.3532C79.0569 52.4066 79.0196 52.4779 78.9995 52.5671C78.9798 52.6563 78.97 52.7678 78.97 52.9017V53.2096H82.8103V54.0191H78.97V54.3404C78.97 54.4787 78.9798 54.5925 78.9995 54.6817C79.0196 54.771 79.0558 54.8424 79.1088 54.8958C79.1616 54.9494 79.2355 54.9862 79.3301 55.0061C79.4249 55.0264 79.5449 55.0364 79.6904 55.0364H82.8367V55.8995H79.6904ZM89.6714 55.8995V52.895L87.4702 55.8059C87.3687 55.9354 87.2212 56 87.0272 56C86.8336 56 86.6857 55.9354 86.5845 55.8059L84.39 52.895V55.8995H83.4777V51.6505C83.4777 51.5076 83.5296 51.4028 83.6331 51.3359C83.7367 51.2689 83.8657 51.2355 84.0199 51.2355C84.1388 51.2355 84.2335 51.2522 84.304 51.2857C84.3744 51.3191 84.4386 51.3737 84.4956 51.4497L87.0406 54.869L89.6052 51.4497C89.6626 51.3737 89.7232 51.3191 89.787 51.2857C89.8508 51.2522 89.9401 51.2355 90.0546 51.2355C90.2089 51.2355 90.3378 51.2689 90.4413 51.3359C90.5449 51.4028 90.5968 51.5076 90.5968 51.6505V55.8995H89.6714ZM91.2311 55.8995V55.0364H94.6552C94.8358 55.0364 94.9659 55.0108 95.0451 54.9594C95.1245 54.9081 95.1642 54.8044 95.1642 54.6484V54.4006C95.1642 54.258 95.1245 54.1564 95.0451 54.0963C94.9659 54.0358 94.838 54.0059 94.6618 54.0059H92.5135C92.2624 54.0059 92.0542 53.9824 91.889 53.9354C91.7237 53.8887 91.5927 53.8174 91.4956 53.7215C91.3987 53.6255 91.3314 53.5052 91.2941 53.3601C91.2566 53.2151 91.2379 53.0444 91.2379 52.8482V52.6205C91.2379 52.3887 91.2622 52.1903 91.3106 52.025C91.359 51.86 91.4338 51.7274 91.5353 51.627C91.6364 51.5266 91.7687 51.4529 91.9319 51.406C92.0949 51.3593 92.2887 51.3359 92.5135 51.3359H93.915V52.199H92.606C92.4517 52.199 92.3383 52.2293 92.2656 52.2894C92.1928 52.3496 92.1565 52.4712 92.1565 52.654V52.8013C92.1565 52.944 92.1896 53.0455 92.2558 53.1058C92.3218 53.1661 92.4364 53.1961 92.5995 53.1961H94.708C94.9592 53.1961 95.1717 53.2173 95.346 53.2598C95.52 53.3021 95.6621 53.3701 95.7722 53.4637C95.8824 53.5574 95.9618 53.678 96.0102 53.8251C96.0586 53.9724 96.083 54.1485 96.083 54.3537V54.7152C96.083 54.9293 96.0586 55.1111 96.0102 55.2606C95.9618 55.41 95.8824 55.5316 95.7722 55.6252C95.6621 55.7189 95.52 55.788 95.346 55.8326C95.1717 55.8773 94.9592 55.8995 94.708 55.8995H91.2311ZM103.916 54.8491H100.796L100.154 55.8995H98.9977L101.615 51.6839C101.695 51.5545 101.789 51.4474 101.899 51.3626C102.01 51.2778 102.168 51.2355 102.376 51.2355C102.578 51.2355 102.734 51.2778 102.845 51.3626C102.955 51.4474 103.05 51.5545 103.129 51.6839L105.733 55.8995H104.57L103.916 54.8491ZM101.265 54.066H103.446L102.355 52.266L101.265 54.066ZM110.935 56C110.83 56 110.731 55.9832 110.641 55.9498C110.551 55.9163 110.466 55.8617 110.387 55.7857L107.102 52.654V55.8995H106.169V51.657C106.169 51.5143 106.219 51.4084 106.318 51.3391C106.417 51.2701 106.546 51.2355 106.705 51.2355C106.819 51.2355 106.914 51.251 106.989 51.2824C107.064 51.3136 107.126 51.3538 107.174 51.4028L110.486 54.6348V51.3359H111.438V55.5785C111.438 55.7299 111.391 55.8382 111.299 55.9028C111.206 55.9677 111.085 56 110.935 56ZM112.204 55.8995V51.3359H115.774C116.109 51.3359 116.387 51.3637 116.61 51.4196C116.833 51.4753 117.01 51.5645 117.142 51.6871C117.274 51.8098 117.368 51.9716 117.423 52.1724C117.478 52.3731 117.506 52.6161 117.506 52.9017V54.3337C117.506 54.6237 117.478 54.8679 117.423 55.0666C117.368 55.2651 117.274 55.4256 117.142 55.5482C117.01 55.6709 116.833 55.7601 116.61 55.816C116.387 55.8717 116.109 55.8995 115.774 55.8995H112.204ZM116.501 52.9486C116.501 52.8102 116.489 52.693 116.465 52.5973C116.44 52.5013 116.399 52.4256 116.339 52.3698C116.28 52.314 116.201 52.2739 116.104 52.2492C116.007 52.2248 115.884 52.2126 115.734 52.2126H113.209V55.0296H115.734C115.871 55.0296 115.988 55.0185 116.085 54.9962C116.182 54.9738 116.261 54.9348 116.323 54.8791C116.384 54.8233 116.429 54.7487 116.458 54.6549C116.487 54.5612 116.501 54.443 116.501 54.3002V52.9486ZM125.457 54.8491H122.337L121.696 55.8995H120.539L123.157 51.6839C123.236 51.5545 123.331 51.4474 123.441 51.3626C123.551 51.2778 123.71 51.2355 123.917 51.2355C124.12 51.2355 124.276 51.2778 124.386 51.3626C124.497 51.4474 124.591 51.5545 124.671 51.6839L127.275 55.8995H126.112L125.457 54.8491ZM122.807 54.066H124.988L123.897 52.266L122.807 54.066ZM129.159 55.8995C128.829 55.8995 128.553 55.8717 128.333 55.816C128.112 55.7601 127.936 55.6709 127.804 55.5482C127.672 55.4256 127.578 55.2651 127.523 55.0666C127.468 54.8679 127.44 54.6237 127.44 54.3337V51.3359H128.452V54.3002C128.452 54.443 128.466 54.56 128.495 54.6516C128.523 54.7431 128.569 54.8178 128.63 54.8759C128.692 54.9336 128.774 54.9738 128.878 54.9962C128.982 55.0185 129.108 55.0296 129.258 55.0296H130.772C130.922 55.0296 131.048 55.0185 131.152 54.9962C131.256 54.9738 131.338 54.9336 131.4 54.8759C131.461 54.8178 131.507 54.742 131.535 54.6484C131.564 54.5545 131.578 54.4364 131.578 54.2935V51.3359H132.576V54.3337C132.576 54.6237 132.549 54.8679 132.494 55.0666C132.439 55.2651 132.345 55.4256 132.213 55.5482C132.081 55.6709 131.904 55.7601 131.684 55.816C131.464 55.8717 131.186 55.8995 130.851 55.8995H129.159ZM134.956 55.8995V52.2126H133.066V51.3359H137.858V52.2126H135.967V55.8995H134.956ZM140.065 55.8995C139.735 55.8995 139.46 55.8717 139.239 55.816C139.019 55.7601 138.843 55.6709 138.71 55.5482C138.578 55.4256 138.485 55.2651 138.429 55.0666C138.374 54.8679 138.347 54.6237 138.347 54.3337V52.9017C138.347 52.6161 138.374 52.3731 138.429 52.1724C138.485 51.9716 138.578 51.8098 138.71 51.6871C138.843 51.5645 139.019 51.4753 139.239 51.4196C139.46 51.3637 139.735 51.3359 140.065 51.3359H141.777C142.112 51.3359 142.39 51.3637 142.61 51.4196C142.83 51.4753 143.007 51.5645 143.139 51.6871C143.271 51.8098 143.365 51.9716 143.42 52.1724C143.475 52.3731 143.503 52.6161 143.503 52.9017V54.3337C143.503 54.6237 143.475 54.8679 143.42 55.0666C143.365 55.2651 143.271 55.4256 143.139 55.5482C143.007 55.6709 142.83 55.7601 142.61 55.816C142.39 55.8717 142.112 55.8995 141.777 55.8995H140.065ZM142.498 52.9486C142.498 52.8058 142.486 52.6875 142.462 52.5939C142.437 52.5002 142.396 52.4245 142.339 52.3664C142.282 52.3085 142.204 52.2683 142.105 52.246C142.005 52.2236 141.883 52.2126 141.738 52.2126H140.112C139.953 52.2126 139.824 52.2236 139.725 52.246C139.626 52.2683 139.548 52.3085 139.49 52.3664C139.433 52.4245 139.395 52.5002 139.375 52.5939C139.355 52.6875 139.345 52.8058 139.345 52.9486V54.2935C139.345 54.4408 139.355 54.5623 139.375 54.6583C139.395 54.7542 139.433 54.83 139.49 54.8858C139.548 54.9415 139.626 54.9795 139.725 54.9996C139.824 55.0197 139.953 55.0296 140.112 55.0296H141.738C141.883 55.0296 142.005 55.0197 142.105 54.9996C142.204 54.9795 142.282 54.9415 142.339 54.8858C142.396 54.83 142.437 54.7542 142.462 54.6583C142.486 54.5623 142.498 54.4408 142.498 54.2935V52.9486ZM150.436 55.8995V52.895L148.235 55.8059C148.134 55.9354 147.986 56 147.792 56C147.599 56 147.451 55.9354 147.35 55.8059L145.155 52.895V55.8995H144.243V51.6505C144.243 51.5076 144.295 51.4028 144.398 51.3359C144.502 51.2689 144.631 51.2355 144.785 51.2355C144.904 51.2355 144.999 51.2522 145.069 51.2857C145.14 51.3191 145.204 51.3737 145.261 51.4497L147.806 54.869L150.37 51.4497C150.428 51.3737 150.488 51.3191 150.552 51.2857C150.616 51.2522 150.705 51.2355 150.82 51.2355C150.974 51.2355 151.103 51.2689 151.207 51.3359C151.31 51.4028 151.362 51.5076 151.362 51.6505V55.8995H150.436ZM156.709 54.8491H153.589L152.948 55.8995H151.791L154.409 51.6839C154.488 51.5545 154.583 51.4474 154.693 51.3626C154.803 51.2778 154.962 51.2355 155.169 51.2355C155.372 51.2355 155.528 51.2778 155.638 51.3626C155.749 51.4474 155.843 51.5545 155.923 51.6839L158.527 55.8995H157.364L156.709 54.8491ZM154.059 54.066H156.24L155.149 52.266L154.059 54.066ZM159.631 55.8995V52.2126H157.74V51.3359H162.532V52.2126H160.642V55.8995H159.631ZM163.061 55.8995V51.3359H164.066V55.8995H163.061ZM166.545 55.8995C166.214 55.8995 165.939 55.8717 165.718 55.816C165.498 55.7601 165.322 55.6709 165.19 55.5482C165.057 55.4256 164.964 55.2651 164.909 55.0666C164.854 54.8679 164.826 54.6237 164.826 54.3337V52.9017C164.826 52.6161 164.854 52.3731 164.909 52.1724C164.964 51.9716 165.057 51.8098 165.19 51.6871C165.322 51.5645 165.498 51.4753 165.718 51.4196C165.939 51.3637 166.214 51.3359 166.545 51.3359H168.257C168.592 51.3359 168.869 51.3637 169.09 51.4196C169.31 51.4753 169.486 51.5645 169.618 51.6871C169.75 51.8098 169.844 51.9716 169.899 52.1724C169.954 52.3731 169.982 52.6161 169.982 52.9017V54.3337C169.982 54.6237 169.954 54.8679 169.899 55.0666C169.844 55.2651 169.75 55.4256 169.618 55.5482C169.486 55.6709 169.31 55.7601 169.09 55.816C168.869 55.8717 168.592 55.8995 168.257 55.8995H166.545ZM168.977 52.9486C168.977 52.8058 168.965 52.6875 168.941 52.5939C168.917 52.5002 168.876 52.4245 168.819 52.3664C168.761 52.3085 168.683 52.2683 168.584 52.246C168.485 52.2236 168.363 52.2126 168.217 52.2126H166.591C166.432 52.2126 166.303 52.2236 166.204 52.246C166.105 52.2683 166.027 52.3085 165.97 52.3664C165.912 52.4245 165.874 52.5002 165.854 52.5939C165.834 52.6875 165.824 52.8058 165.824 52.9486V54.2935C165.824 54.4408 165.834 54.5623 165.854 54.6583C165.874 54.7542 165.912 54.83 165.97 54.8858C166.027 54.9415 166.105 54.9795 166.204 54.9996C166.303 55.0197 166.432 55.0296 166.591 55.0296H168.217C168.363 55.0296 168.485 55.0197 168.584 54.9996C168.683 54.9795 168.761 54.9415 168.819 54.8858C168.876 54.83 168.917 54.7542 168.941 54.6583C168.965 54.5623 168.977 54.4408 168.977 54.2935V52.9486ZM175.488 56C175.382 56 175.284 55.9832 175.194 55.9498C175.104 55.9163 175.019 55.8617 174.939 55.7857L171.654 52.654V55.8995H170.722V51.657C170.722 51.5143 170.772 51.4084 170.871 51.3391C170.97 51.2701 171.099 51.2355 171.258 51.2355C171.372 51.2355 171.467 51.251 171.542 51.2824C171.617 51.3136 171.679 51.3538 171.727 51.4028L175.039 54.6348V51.3359H175.99V55.5785C175.99 55.7299 175.944 55.8382 175.852 55.9028C175.759 55.9677 175.638 56 175.488 56Z" fill="white"/>
<path fill-rule="evenodd" clip-rule="evenodd" d="M28.1077 2.7826H68.4137C69.1289 1.14397 70.7482 0 72.6317 0C75.1779 0 77.2416 2.08927 77.2416 4.66691C77.2416 7.24423 75.1779 9.33362 72.6317 9.33362C70.7482 9.33362 69.1287 8.18998 68.4133 6.55103C54.0498 6.54648 39.674 6.43419 25.32 6.43419C18.5142 6.43224 12.8527 8.36577 8.15622 11.93C13.1914 6.15565 19.7392 2.93249 28.1077 2.7826ZM72.632 2.52345C73.8013 2.52345 74.7493 3.48317 74.7493 4.66691C74.7493 5.85077 73.8013 6.81049 72.632 6.81049C71.4626 6.81049 70.5146 5.85077 70.5146 4.66691C70.5146 3.48317 71.4626 2.52345 72.632 2.52345Z" fill="white"/>
<path fill-rule="evenodd" clip-rule="evenodd" d="M22.1564 10.7299H75.3346C76.0124 9.00707 77.6749 7.7893 79.6183 7.7893C82.1645 7.7893 84.2283 9.87857 84.2283 12.4562C84.2283 15.0335 82.1645 17.1229 79.6183 17.1229C77.7415 17.1229 76.1269 15.9874 75.4078 14.358C60.6138 14.3548 33.8354 14.2411 19.3687 14.2411C12.8799 14.2411 5.96729 15.8896 2.20492 20.7197C4.71171 14.2035 12.3906 10.7299 22.1564 10.7299ZM79.6187 10.3127C80.788 10.3127 81.736 11.2725 81.736 12.4562C81.736 13.64 80.788 14.5997 79.6187 14.5997C78.4493 14.5997 77.5012 13.64 77.5012 12.4562C77.5012 11.2725 78.4493 10.3127 79.6187 10.3127Z" fill="white"/>
<path fill-rule="evenodd" clip-rule="evenodd" d="M61.6211 21.8845C47.8343 21.8802 34.0362 21.7771 20.2571 21.7682C19.681 21.7679 19.1038 21.7676 18.5278 21.7676C14.6791 21.7673 9.02821 21.7918 5.1211 24.1259C2.11895 25.9196 0.14586 29.0775 0.811445 34.6371C-0.516192 30.0617 -0.183132 26.6328 1.57949 24.3781C5.77427 19.0117 12.744 17.9436 19.356 17.8737C33.3259 17.7263 47.586 18.0998 61.6214 18.1155C62.3367 16.4771 63.9563 15.3334 65.8394 15.3334C68.3856 15.3334 70.4495 17.4227 70.4495 20.0003C70.4495 22.5777 68.3856 24.667 65.8394 24.667C63.9559 24.667 62.3365 23.5234 61.6211 21.8845ZM65.8398 17.8569C67.009 17.8569 67.9571 18.8166 67.9571 20.0003C67.9571 21.1841 67.009 22.1439 65.8398 22.1439C64.6705 22.1439 63.7225 21.1841 63.7225 20.0003C63.7225 18.8166 64.6705 17.8569 65.8398 17.8569Z" fill="white"/>
</g>
<defs>
<clipPath id="clip0_2068_12719">
<rect width="176" height="56" fill="white"/>
</clipPath>
</defs>
</svg>
